<svg xmlns="http://www.w3.org/2000/svg" fill="none" viewBox="0 0 410 136"><g fill="#fff" fill-rule="evenodd" clip-path="url(#clip0)" clip-rule="evenodd"><path d="M181.8 29.5c.2 2.3 1 4 2.2 5.1 1.4 1 3.3 1.6 6 1.6 1.1 0 2.2-.1 3-.4a6 6 0 002.1-1c.5-.5 1-1 1.2-1.6.2-.6.3-1.3.3-2 0-1-.4-2-1.1-2.8-.8-.9-2.1-1.5-4.1-1.9l-5-.9a29 29 0 01-5-1.4 12 12 0 01-3.8-2.2c-1-.9-1.8-2-2.3-3.3a12.4 12.4 0 01.3-9.4 9.7 9.7 0 013-3.5c1.3-.9 2.8-1.6 4.6-2 1.8-.6 3.8-.8 6-.8 2.7 0 5 .3 6.9 1 1.8.6 3.3 1.4 4.4 2.5 1.2 1 2 2.2 2.6 3.6.5 1.4.9 2.8 1 4.3l-7.4 1c-.4-2.1-1.2-3.6-2.3-4.5-1.1-1-2.8-1.4-5-1.4-1.4 0-2.5 0-3.4.3-.9.3-1.6.6-2 1a3 3 0 00-1.2 1.2c-.2.5-.3 1-.3 1.6 0 1.4.4 2.4 1.2 3.2.8.7 2.1 1.2 4 1.6l5.2 1a18 18 0 019 4c2 1.8 3 4.4 3 7.9 0 1.6-.4 3.1-1 4.5s-1.5 2.7-2.8 3.7a13 13 0 01-4.5 2.4c-1.9.6-4 1-6.5 1-5.2 0-9.2-1.2-11.9-3.4-2.7-2.2-4.2-5.5-4.4-10h8zm75.2-4.6c0-1.9-.4-3.4-1.4-4.4-.9-1-2.4-1.6-4.3-1.6-1 0-2 .1-2.6.5-.8.3-1.4.7-2 1.3a6 6 0 00-1.1 1.9c-.3.7-.5 1.5-.5 2.3h12zm6.9 8.3a11 11 0 01-3.7 7.1c-2 1.6-5 2.4-8.8 2.4-4.6 0-8-1.3-10.4-3.8a15.5 15.5 0 01-3.4-10.8c0-2.4.3-4.4 1-6.3a12 12 0 017.2-7.5c1.7-.7 3.6-1 5.6-1 4.3 0 7.5 1.2 9.6 3.7 2.1 2.4 3.2 5.7 3.2 9.8v3H245c0 2.2.6 4 1.7 5.2 1 1.3 2.6 2 4.8 2 2.9 0 4.6-1.3 5.2-3.8h7.2zm28.6-1.4c-.3 3.4-1.5 6-3.5 8s-5 3-9 3c-2.3 0-4.3-.4-6-1.1-1.7-.7-3.1-1.7-4.2-3-1-1.3-1.9-2.8-2.4-4.6a21.2 21.2 0 01.1-12c.7-1.9 1.6-3.4 2.7-4.7 1.2-1.3 2.6-2.3 4.3-3a15 15 0 015.9-1.1c1.8 0 3.5.2 4.9.7 1.4.5 2.6 1.2 3.5 2 1 .9 1.7 1.9 2.2 3 .6 1.3 1 2.6 1 4l-7.4 1a7.2 7.2 0 00-1.2-3.4c-.7-1-1.8-1.3-3.3-1.3a5 5 0 00-2.8.7c-.8.4-1.4 1-1.8 2a9 9 0 00-1 2.7 19.9 19.9 0 000 6.6c.2 1 .5 2 1 2.8a5 5 0 001.7 2c.8.4 1.7.7 2.8.7 1.5 0 2.7-.4 3.5-1.3a6 6 0 001.4-3.7h7.6zm2.8 10V14.3h7.5v27.7h-7.5zm28.3-12.3l-3.3.2c-1.5 0-2.8.2-3.7.4-1 .3-1.7.6-2.2 1-.5.3-.9.8-1 1.3a5 5 0 00-.3 1.6c0 1 .3 1.7 1 2.2a4 4 0 002.6.8c1.9 0 3.5-.5 4.7-1.3.6-.5 1.2-1.2 1.6-2 .4-.7.6-1.6.6-2.8v-1.4zm.2 8.9c-1 1.2-2.3 2.2-3.7 3-1.3.8-3.1 1.2-5.3 1.2-1.2 0-2.4-.2-3.5-.5s-2-.8-3-1.5a7.2 7.2 0 01-2-2.6c-.4-1-.7-2.3-.7-3.7a8 8 0 011.3-4.7c.9-1.2 2-2.1 3.4-2.8 1.3-.7 2.9-1.2 4.6-1.4 1.7-.3 3.5-.5 5.2-.6l3.6-.1v-1.4c0-1.7-.5-2.9-1.4-3.5-1-.7-2-1-3.3-1-3 0-4.6 1.1-5 3.4l-6.9-.7c.5-2.9 1.8-5 3.9-6.3 2-1.3 4.8-1.9 8.2-1.9 2.2 0 4 .3 5.5.8 1.4.5 2.6 1.2 3.5 2.2 1 1 1.6 2 2 3.5.4 1.3.6 2.8.6 4.5V42h-7v-3.5zm10.4 3.5v-38h7.4v38h-7.4zm10.8 0V14.2h7.4v27.7H345zm17.5-8.8c.2 1.6.9 2.6 2 3.1a9 9 0 003.7.8 8 8 0 003.8-.7c.8-.4 1.2-1.1 1.2-2.1 0-.7-.3-1.4-.7-1.9-.5-.5-1.4-.9-2.8-1.1l-3.8-.6c-3.4-.6-5.9-1.5-7.5-2.8-1.7-1.3-2.5-3.2-2.5-5.8a7.4 7.4 0 013.4-6.4c1-.7 2.3-1.3 3.8-1.7 1.4-.4 3-.6 4.8-.6 2.2 0 4 .2 5.5.7 1.5.4 2.7 1 3.7 1.7 1 .8 1.6 1.7 2.1 2.7.5 1 .8 2.1 1 3.3l-6.6.8a4.8 4.8 0 00-1.7-2.8c-.8-.6-2-.9-3.8-.9-1 0-1.8.1-2.5.3-.6.1-1.2.3-1.5.6-.4.2-.7.5-.8.8a2 2 0 00-.3 1c0 .8.3 1.5.9 1.9.5.4 1.6.7 3.2 1l3.5.6c2 .3 3.5.7 4.8 1.2 1.3.5 2.3 1.1 3 1.8.8.8 1.4 1.6 1.7 2.6.3 1 .4 2.2.4 3.5 0 2.6-1 4.7-3 6.3-2 1.5-5 2.3-9.2 2.3-1.6 0-3.2-.1-4.7-.4a12 12 0 01-4-1.6 9 9 0 01-4.3-7.6h7.2zm23.3-13.2h-4.4v-5.7h4.4V6.8h7.4v7.4h6.4v5.7h-6.4v12.8c0 1.5.3 2.5 1 3 .5.5 1.3.8 2.2.8a14.3 14.3 0 003-.4l1.1 5.5a17.8 17.8 0 01-5.8.8c-3 0-5.3-.7-6.7-2.2-1.5-1.4-2.2-3.9-2.2-7.3v-13zM190 67.3c1.4 0 2.5-.2 3.4-.5.9-.2 1.6-.6 2.1-1.1.6-.5 1-1.1 1.1-1.9a9 9 0 000-4.7c-.2-.6-.6-1.2-1.1-1.7-.5-.4-1.3-.8-2.2-1-.9-.3-2-.4-3.4-.4h-7.7v11.3h7.8zm-15.6-17.8H190c3 0 5.3.3 7.2 1a12 12 0 014.5 2.6c1.2 1 2 2.3 2.4 3.7a17 17 0 010 9.3 9.5 9.5 0 01-2.4 4c-1 1.2-2.6 2-4.4 2.7-1.9.7-4.2 1-7 1h-8.1v13.6h-7.8v-38zM253.7 75l-3.3.2a19 19 0 00-3.7.4c-1 .3-1.7.6-2.3 1-.5.4-.8.8-1 1.3-.2.5-.3 1-.3 1.6 0 1 .4 1.7 1 2.2a4 4 0 002.7.8c1.9 0 3.4-.4 4.6-1.3.7-.5 1.3-1.1 1.7-2 .4-.7.6-1.6.6-2.8V75zm.2 8.9a14.8 14.8 0 01-3.7 3c-1.4.8-3.1 1.2-5.3 1.2-1.2 0-2.4-.2-3.5-.5s-2.1-.8-3-1.5a7.2 7.2 0 01-2-2.6c-.4-1-.7-2.3-.7-3.7 0-2 .4-3.5 1.3-4.7.8-1.2 2-2.1 3.3-2.8 1.4-.7 3-1.2 4.7-1.4 1.7-.3 3.4-.5 5.2-.6l3.6-.1v-1.4c0-1.7-.5-2.9-1.4-3.5-1-.6-2-1-3.4-1-2.9 0-4.6 1.2-5 3.4l-6.8-.7c.5-2.9 1.8-5 3.8-6.2 2-1.3 4.8-2 8.3-2 2.1 0 4 .3 5.4.8 1.5.5 2.7 1.2 3.6 2.2 1 1 1.6 2.1 2 3.5.4 1.3.6 2.9.6 4.6v17.5h-7v-3.5zm10.4-24.2h7.2v3.8c.9-1.4 2-2.5 3.3-3.2 1.3-.7 2.7-1.1 4.2-1.1a16.1 16.1 0 013 .3l-1 6.7a13.2 13.2 0 00-5.4 0c-.8.2-1.4.5-2 1a5.4 5.4 0 00-2 4.1v16h-7.3V59.8zm20 0h7.3v3.7a10 10 0 013.6-3.5 9 9 0 014.4-1c2 0 3.6.3 5 1.1 1.2.9 2 2 2.6 3.6 1.3-1.7 2.6-3 4-3.7 1.5-.7 3-1 4.7-1 2.9 0 5 .7 6.5 2.3 1.4 1.6 2.1 4.1 2.1 7.7v18.5h-7.4V69.9c0-1 0-1.8-.3-2.5-.1-.6-.4-1-.7-1.4-.3-.4-.7-.6-1-.8l-1.4-.2c-.7 0-1.4.2-2 .4-.7.2-1.3.7-1.9 1.3a6 6 0 00-1.2 1.7c-.3.6-.4 1.3-.4 2v17h-7.5V69.9c0-1 0-1.8-.2-2.5l-.7-1.4c-.3-.4-.7-.6-1.1-.8l-1.4-.2c-.7 0-1.4.2-2 .4-.6.2-1.2.7-1.8 1.3a5.7 5.7 0 00-1.7 4v16.7h-7.4V59.7zM345.5 75l-3.3.2c-1.5 0-2.8.2-3.8.4-1 .3-1.6.6-2.2 1-.5.4-.8.8-1 1.3-.2.5-.3 1-.3 1.6 0 1 .4 1.7 1 2.2a4 4 0 002.7.8c1.9 0 3.4-.4 4.6-1.3.7-.5 1.3-1.1 1.7-2 .4-.7.6-1.6.6-2.8V75zm.2 8.9a14.7 14.7 0 01-3.7 3c-1.4.8-3.1 1.2-5.3 1.2-1.2 0-2.4-.2-3.5-.5-1.2-.3-2.1-.8-3-1.5a7.2 7.2 0 01-2-2.6c-.4-1-.7-2.3-.7-3.7a8 8 0 011.3-4.7c.8-1.2 2-2.1 3.3-2.8 1.4-.7 3-1.2 4.7-1.4 1.7-.3 3.4-.5 5.2-.6l3.6-.1v-1.4c0-1.7-.5-2.9-1.4-3.5-1-.6-2-1-3.4-1-2.9 0-4.6 1.2-5 3.4l-6.8-.7c.5-2.9 1.8-5 3.8-6.2 2-1.3 4.8-2 8.3-2 2.1 0 4 .3 5.4.8 1.5.5 2.7 1.2 3.6 2.2 1 1 1.6 2.1 2 3.5.4 1.3.6 2.9.6 4.6v17.5h-7v-3.5zm35.7-6.6c-.3 3.4-1.4 6-3.4 8s-5 3-9 3c-2.3 0-4.4-.4-6-1.1-1.8-.7-3.1-1.7-4.2-3s-2-2.8-2.4-4.6a21.2 21.2 0 010-12c.7-1.9 1.6-3.4 2.8-4.7 1.1-1.3 2.6-2.3 4.3-3a15 15 0 015.8-1c1.9 0 3.5.2 5 .6 1.3.5 2.5 1.2 3.5 2 1 .9 1.7 1.9 2.2 3 .5 1.3.9 2.6 1 4l-7.4 1a7.3 7.3 0 00-1.3-3.4c-.6-.9-1.7-1.3-3.3-1.3-1 0-2 .2-2.8.7-.7.5-1.3 1.1-1.7 2a9 9 0 00-1 2.7 19.7 19.7 0 000 6.6c.2 1 .5 2 1 2.8a5 5 0 001.7 2c.7.5 1.7.7 2.8.7 1.5 0 2.6-.4 3.4-1.3.9-.8 1.3-2 1.5-3.6h7.5zm2.7 14c1 .3 2 .4 3.1.4 1 0 1.8-.2 2.4-.7.6-.5 1.1-1.3 1.6-2.5l.8-2.3-11.5-26.5h8.6l6.5 18.2 6-18.2h8.2l-11.2 28.5a75 75 0 01-1.9 4.2c-.5 1.1-1.2 2.1-1.9 3-.7.7-1.6 1.3-2.6 1.7-1 .4-2.2.6-3.7.6a19.4 19.4 0 01-5.6-.9l1.2-5.5zm-202.2 29.2c.2 2.4 1 4 2.2 5.1 1.4 1 3.3 1.6 6 1.6 1.1 0 2.2-.1 3-.4a6 6 0 002.1-1c.5-.5 1-1 1.2-1.6.2-.6.3-1.3.3-2 0-1-.4-1.9-1.1-2.8-.8-.8-2.1-1.5-4.1-1.8l-5-1a29 29 0 01-5-1.3 12 12 0 01-3.8-2.2c-1-1-1.8-2-2.3-3.4a12.4 12.4 0 01.3-9.4 9.7 9.7 0 013-3.5 14 14 0 014.6-2c1.8-.5 3.8-.8 6-.8 2.7 0 5 .3 6.9 1 1.8.6 3.3 1.5 4.4 2.5 1.2 1 2 2.3 2.6 3.6a17 17 0 011 4.3l-7.4 1c-.4-2-1.2-3.6-2.3-4.5-1.1-1-2.8-1.4-5-1.4-1.4 0-2.5.1-3.4.4-.9.2-1.6.5-2 .9-.6.3-1 .8-1.2 1.3l-.3 1.5c0 1.4.4 2.5 1.2 3.2.8.7 2.1 1.2 4 1.6l5.2 1a18 18 0 019 4c2 1.8 3 4.4 3 7.9 0 1.6-.4 3.2-1 4.6-.6 1.4-1.5 2.6-2.8 3.6a13 13 0 01-4.5 2.5c-1.9.6-4 .9-6.5.9-5.2 0-9.2-1.2-11.9-3.4-2.7-2.2-4.2-5.5-4.4-10h8zm45-4.5c0-2-.6-3.4-1.5-4.5-1-1-2.4-1.6-4.4-1.6-1 0-1.8.2-2.6.5a5.5 5.5 0 00-3 3.2c-.3.7-.5 1.5-.5 2.4h12zm6.8 8.2c-.5 3.2-1.8 5.5-3.8 7.1-2 1.6-4.9 2.4-8.7 2.4-4.6 0-8-1.2-10.4-3.8a15.5 15.5 0 01-3.5-10.8c0-2.3.4-4.4 1-6.3.7-1.8 1.7-3.3 2.9-4.6a12 12 0 014.4-2.9c1.7-.6 3.5-1 5.6-1 4.2 0 7.4 1.2 9.6 3.7 2.1 2.4 3.2 5.7 3.2 9.9v3h-19.2c0 2.2.6 4 1.7 5.2 1 1.2 2.6 1.9 4.7 1.9 3 0 4.7-1.3 5.2-3.8h7.3zm2.7-19h7.2v3.9a8.4 8.4 0 017.5-4.4 16.8 16.8 0 013 .3l-1 6.7a13 13 0 00-5.4 0c-.8.2-1.5.5-2 1a5.4 5.4 0 00-2 4.2v16h-7.3v-27.7zm48.2 27.7v-27.7h7.4v27.7h-7.4zm36.2-10c-.3 3.3-1.5 6-3.4 7.9-2 2-5 3-9 3-2.4 0-4.4-.4-6.1-1.1-1.7-.7-3.1-1.7-4.2-3-1-1.3-1.9-2.8-2.4-4.6a21.3 21.3 0 01.1-12c.7-1.9 1.6-3.4 2.7-4.7 1.2-1.3 2.6-2.3 4.3-3a15 15 0 015.9-1c1.8 0 3.5.2 4.9.6 1.4.5 2.6 1.2 3.5 2a9 9 0 012.2 3c.6 1.3 1 2.6 1.1 4l-7.5 1a7.2 7.2 0 00-1.2-3.4c-.6-.9-1.7-1.3-3.3-1.3-1.1 0-2 .2-2.8.7-.8.5-1.4 1.1-1.8 2a9 9 0 00-1 2.7 19.9 19.9 0 000 6.6c.3 1 .6 2 1 2.8a5 5 0 001.7 2c.8.5 1.7.7 2.8.7 1.5 0 2.7-.4 3.5-1.3.8-.8 1.3-2 1.4-3.6h7.6zm21.5-7c0-1.9-.4-3.3-1.4-4.4-.9-1-2.4-1.6-4.3-1.6-1 0-1.9.2-2.6.5a5.5 5.5 0 00-3.1 3.2c-.3.7-.5 1.5-.5 2.4h12zm6.9 8.3c-.5 3.2-1.7 5.5-3.7 7.1-2 1.6-5 2.4-8.8 2.4-4.6 0-8-1.2-10.4-3.8a15.5 15.5 0 01-3.4-10.8c0-2.3.3-4.4 1-6.3a12 12 0 017.2-7.5c1.7-.6 3.6-1 5.6-1 4.3 0 7.5 1.2 9.6 3.7 2.1 2.4 3.2 5.7 3.2 9.9v3h-19.2c0 2.2.6 4 1.7 5.2 1 1.2 2.7 1.9 4.8 1.9 3 0 4.6-1.3 5.2-3.8h7.2zm-118.6-63c1.6 1.7 2.3 4.3 2.3 7.9v18.3h-7.4V70c0-2-.4-3.3-1.1-4-.8-.7-1.8-1-3-1-1 0-1.8 0-2.5.4-.7.2-1.3.6-1.9 1.2-.5.5-1 1-1.2 1.8-.4.6-.6 1.4-.6 2.2v16.7h-7.4V52h7.4v11.2a10.3 10.3 0 018.4-4.4c3.2 0 5.5.8 7 2.5zM227 32c.4-1 .5-2.4.5-4s-.1-3-.4-4c-.3-1.1-.8-2-1.3-2.7a4.5 4.5 0 00-1.9-1.5 6.9 6.9 0 00-4.7 0c-.6.2-1.3.6-2 1.1a6 6 0 00-1.5 2.5 13 13 0 00-.5 4v.8c0 1.8.2 3.3.4 4.4.4 1 .8 2 1.5 2.6.7.6 1.4 1 2.2 1.2.7.2 1.4.3 2.2.3.8 0 1.6-.1 2.3-.5a5 5 0 002-1.5c.5-.7 1-1.6 1.2-2.7zm5.4-14.8a18 18 0 012.9 10.8c0 2.2-.3 4.2-.9 6-.5 1.8-1.3 3.4-2.3 4.7a10.9 10.9 0 01-8.9 4 12 12 0 01-4.1-.7 9 9 0 01-3.8-3v10.5h-7.5V14.2h7.2v3.6c2.2-3 5-4.5 8.7-4.5 3.9 0 6.8 1.3 8.7 4zm56 76.8a4 4 0 110 8 4 4 0 010-8zM299 3a4 4 0 110 8 4 4 0 010-8zm49.7 0a4 4 0 110 8 4 4 0 010-8zm-93.6 102.2h8.6l5.3 19.3 5.6-19.3h8.3l-10.2 27.7h-7.5l-10.1-27.7zM57 68.4L23.7 102 7 85a23.6 23.6 0 1133.4-33.4l16.8 16.7zm67-16.7a23.6 23.6 0 010 33.4L107.5 102 73.9 68.4l16.7-16.7a23.6 23.6 0 0133.5 0zm-41.9-8.4A23.6 23.6 0 1148.7 10a23.6 23.6 0 0133.4 33.4zM65.6 76.8L99 110.2 82.3 127a23.6 23.6 0 01-33.4 0L32 110.2l33.5-33.4z"/></g><defs><clipPath id="clip0"><path fill="#fff" d="M0 0h410v136H0z"/></clipPath></defs></svg>